<svg xmlns="http://www.w3.org/2000/svg" viewBox="0 0 800 450" width="800" height="450" role="img" aria-label="Área de Tecnología">
  <rect width="800" height="450" fill="#660915"/>
  <g stroke="#f1b300" stroke-width="2" opacity="0.55" fill="none">
    <path fill="none" d="M120 330 L240 250 L360 290 L480 170 L600 220 L690 130"/>
    <path fill="none" d="M120 330 L200 190 L360 290 L470 330 L600 220"/>
    <path fill="none" d="M200 190 L340 120 L480 170"/>
  </g>
  <g fill="#f1b300">
    <circle cx="120" cy="330" r="9"/>
    <circle cx="240" cy="250" r="7"/>
    <circle cx="360" cy="290" r="11"/>
    <circle cx="480" cy="170" r="9"/>
    <circle cx="600" cy="220" r="7"/>
    <circle cx="690" cy="130" r="9"/>
    <circle cx="200" cy="190" r="7"/>
    <circle cx="340" cy="120" r="9"/>
    <circle cx="470" cy="330" r="7"/>
  </g>
  <g fill="#ffffff" opacity="0.08">
    <rect x="0" y="0" width="800" height="4"/>
    <rect x="0" y="446" width="800" height="4"/>
  </g>
</svg>
